<svg width="400" height="400" xmlns="http://www.w3.org/2000/svg" viewBox="175 110 200 200">
  <!-- Paths zoomed in and centered -->
  <path d="M286.43802,178.92209c-10.45401,-10.61801 -24.97403,-17.22102 -41.01406,-17.22102c-16.04302,0 -30.56304,6.60301 -41.01706,17.22102c-2.626,-5.72401 -4.12801,-12.06402 -4.12801,-18.77703c0,-24.93303 20.21203,-45.14506 45.14506,-45.14506c24.93003,0 45.14206,20.21203 45.14206,45.14506c0,6.71301 -1.502,13.05502 -4.12801,18.77703z" fill="#4B4B4B"></path>
  <path d="M285.79302,119.12801c5.73001,-2.626 12.07002,-4.12801 18.78303,-4.12801c24.93303,0 45.14506,20.21203 45.14506,45.14506c0,24.93003 -20.21203,45.14206 -45.14506,45.14206c-6.71301,0 -13.05502,-1.502 -18.78303,-4.12801c10.62401,-10.45301 17.22702,-24.97403 17.22702,-41.01406c0,-16.04302 -6.60301,-30.56304 -17.22702,-41.01706z" fill="#4B4B4B"></path>
   <path d="M304.57604,217.74214c-16.04002,0 -30.56004,-6.60401 -41.01406,-17.22702c-2.626,5.72701 -4.12801,12.06902 -4.12801,18.78303c0,24.93203 20.21203,45.14406 45.14206,45.14406c24.93303,0 45.14506,-20.21203 45.14506,-45.14406c0,-6.71401 -1.502,-13.05402 -4.12801,-18.78303c-10.45401,10.62301 -24.97403,17.22702 -41.01706,17.22702z" fill="#4B4B4B"></path>
  <path d="M264.20098,178.28309c-10.61801,10.45401 -17.22102,24.97403 -17.22102,41.01506c0,16.04202 6.60301,30.56204 17.22102,41.01606c-5.72401,2.626 -12.06402,4.12801 -18.77703,4.12801c-24.93303,0 -45.14506,-20.21203 -45.14506,-45.14406c0,-24.93103 20.21203,-45.14306 45.14506,-45.14306c6.71301,0 13.05502,1.502 18.77703,4.12801z" fill="#4B4B4B"></path>
 
   <!-- Text "COLLABX" added -->
  <text x="275" y="305" font-size="40" text-anchor="middle" fill="#4B4B4B" font-family="Arial" font-weight="bold"> COLLAB<tspan fill="#FF8C00" font-size="40" >X</tspan>
      </text>

</svg>
